<svg id="Layer_1" xmlns="http://www.w3.org/2000/svg" viewBox="0 0 256 256"><style>.st1{fill:#fff}</style><linearGradient id="XMLID_342_" gradientUnits="userSpaceOnUse" x1="221.467" y1="-21.579" x2="34.533" y2="277.579"><stop offset="0" stop-color="#1066b1"/><stop offset="1" stop-color="#7c3b97"/></linearGradient><path id="XMLID_2_" fill="url(#XMLID_342_)" d="M0 0h256v256H0z"/><g id="XMLID_1_"><g id="XMLID_3_"><g id="XMLID_340_"><path id="p_673_" class="st1" d="M28 28h8v8h-8z"/></g><g id="XMLID_339_"><path id="p_672_" class="st1" d="M28 36h8v8h-8z"/></g><g id="XMLID_338_"><path id="p_671_" class="st1" d="M28 44h8v8h-8z"/></g><g id="XMLID_337_"><path id="p_670_" class="st1" d="M28 52h8v8h-8z"/></g><g id="XMLID_336_"><path id="p_669_" class="st1" d="M28 60h8v8h-8z"/></g><g id="XMLID_335_"><path id="p_668_" class="st1" d="M28 68h8v8h-8z"/></g><g id="XMLID_334_"><path id="p_667_" class="st1" d="M28 76h8v8h-8z"/></g><g id="XMLID_333_"><path id="p_666_" class="st1" d="M28 92h8v8h-8z"/></g><g id="XMLID_332_"><path id="p_665_" class="st1" d="M28 100h8v8h-8z"/></g><g id="XMLID_331_"><path id="p_664_" class="st1" d="M28 116h8v8h-8z"/></g><g id="XMLID_330_"><path id="p_663_" class="st1" d="M28 132h8v8h-8z"/></g><g id="XMLID_329_"><path id="p_662_" class="st1" d="M28 148h8v8h-8z"/></g><g id="XMLID_328_"><path id="p_661_" class="st1" d="M28 172h8v8h-8z"/></g><g id="XMLID_327_"><path id="p_660_" class="st1" d="M28 180h8v8h-8z"/></g><g id="XMLID_326_"><path id="p_659_" class="st1" d="M28 188h8v8h-8z"/></g><g id="XMLID_325_"><path id="p_658_" class="st1" d="M28 196h8v8h-8z"/></g><g id="XMLID_324_"><path id="p_657_" class="st1" d="M28 204h8v8h-8z"/></g><g id="XMLID_323_"><path id="p_656_" class="st1" d="M28 212h8v8h-8z"/></g><g id="XMLID_322_"><path id="p_655_" class="st1" d="M28 220h8v8h-8z"/></g><g id="XMLID_321_"><path id="p_654_" class="st1" d="M36 28h8v8h-8z"/></g><g id="XMLID_320_"><path id="p_653_" class="st1" d="M36 76h8v8h-8z"/></g><g id="XMLID_319_"><path id="p_652_" class="st1" d="M36 92h8v8h-8z"/></g><g id="XMLID_318_"><path id="p_651_" class="st1" d="M36 100h8v8h-8z"/></g><g id="XMLID_317_"><path id="p_650_" class="st1" d="M36 108h8v8h-8z"/></g><g id="XMLID_316_"><path id="p_649_" class="st1" d="M36 116h8v8h-8z"/></g><g id="XMLID_315_"><path id="p_648_" class="st1" d="M36 124h8v8h-8z"/></g><g id="XMLID_314_"><path id="p_647_" class="st1" d="M36 132h8v8h-8z"/></g><g id="XMLID_313_"><path id="p_646_" class="st1" d="M36 140h8v8h-8z"/></g><g id="XMLID_312_"><path id="p_645_" class="st1" d="M36 172h8v8h-8z"/></g><g id="XMLID_311_"><path id="p_644_" class="st1" d="M36 220h8v8h-8z"/></g><g id="XMLID_310_"><path id="p_643_" class="st1" d="M44 28h8v8h-8z"/></g><g id="XMLID_309_"><path id="p_642_" class="st1" d="M44 44h8v8h-8z"/></g><g id="XMLID_308_"><path id="p_641_" class="st1" d="M44 52h8v8h-8z"/></g><g id="XMLID_307_"><path id="p_640_" class="st1" d="M44 60h8v8h-8z"/></g><g id="XMLID_306_"><path id="p_639_" class="st1" d="M44 76h8v8h-8z"/></g><g id="XMLID_305_"><path id="p_638_" class="st1" d="M44 100h8v8h-8z"/></g><g id="XMLID_304_"><path id="p_637_" class="st1" d="M44 108h8v8h-8z"/></g><g id="XMLID_303_"><path id="p_636_" class="st1" d="M44 116h8v8h-8z"/></g><g id="XMLID_302_"><path id="p_635_" class="st1" d="M44 124h8v8h-8z"/></g><g id="XMLID_301_"><path id="p_634_" class="st1" d="M44 132h8v8h-8z"/></g><g id="XMLID_300_"><path id="p_633_" class="st1" d="M44 156h8v8h-8z"/></g><g id="XMLID_299_"><path id="p_632_" class="st1" d="M44 172h8v8h-8z"/></g><g id="XMLID_298_"><path id="p_631_" class="st1" d="M44 188h8v8h-8z"/></g><g id="XMLID_297_"><path id="p_630_" class="st1" d="M44 196h8v8h-8z"/></g><g id="XMLID_296_"><path id="p_629_" class="st1" d="M44 204h8v8h-8z"/></g><g id="XMLID_295_"><path id="p_628_" class="st1" d="M44 220h8v8h-8z"/></g><g id="XMLID_294_"><path id="p_627_" class="st1" d="M52 28h8v8h-8z"/></g><g id="XMLID_293_"><path id="p_626_" class="st1" d="M52 44h8v8h-8z"/></g><g id="XMLID_292_"><path id="p_625_" class="st1" d="M52 52h8v8h-8z"/></g><g id="XMLID_291_"><path id="p_624_" class="st1" d="M52 60h8v8h-8z"/></g><g id="XMLID_290_"><path id="p_623_" class="st1" d="M52 76h8v8h-8z"/></g><g id="XMLID_289_"><path id="p_622_" class="st1" d="M52 92h8v8h-8z"/></g><g id="XMLID_288_"><path id="p_621_" class="st1" d="M52 108h8v8h-8z"/></g><g id="XMLID_287_"><path id="p_620_" class="st1" d="M52 116h8v8h-8z"/></g><g id="XMLID_286_"><path id="p_619_" class="st1" d="M52 124h8v8h-8z"/></g><g id="XMLID_285_"><path id="p_618_" class="st1" d="M52 132h8v8h-8z"/></g><g id="XMLID_284_"><path id="p_617_" class="st1" d="M52 140h8v8h-8z"/></g><g id="XMLID_283_"><path id="p_616_" class="st1" d="M52 148h8v8h-8z"/></g><g id="XMLID_282_"><path id="p_615_" class="st1" d="M52 172h8v8h-8z"/></g><g id="XMLID_281_"><path id="p_614_" class="st1" d="M52 188h8v8h-8z"/></g><g id="XMLID_280_"><path id="p_613_" class="st1" d="M52 196h8v8h-8z"/></g><g id="XMLID_279_"><path id="p_612_" class="st1" d="M52 204h8v8h-8z"/></g><g id="XMLID_278_"><path id="p_611_" class="st1" d="M52 220h8v8h-8z"/></g><g id="XMLID_277_"><path id="p_610_" class="st1" d="M60 28h8v8h-8z"/></g><g id="XMLID_276_"><path id="p_609_" class="st1" d="M60 44h8v8h-8z"/></g><g id="XMLID_275_"><path id="p_608_" class="st1" d="M60 52h8v8h-8z"/></g><g id="XMLID_274_"><path id="p_607_" class="st1" d="M60 60h8v8h-8z"/></g><g id="XMLID_273_"><path id="p_606_" class="st1" d="M60 76h8v8h-8z"/></g><g id="XMLID_272_"><path id="p_605_" class="st1" d="M60 100h8v8h-8z"/></g><g id="XMLID_271_"><path id="p_604_" class="st1" d="M60 108h8v8h-8z"/></g><g id="XMLID_270_"><path id="p_603_" class="st1" d="M60 116h8v8h-8z"/></g><g id="XMLID_269_"><path id="p_602_" class="st1" d="M60 124h8v8h-8z"/></g><g id="XMLID_268_"><path id="p_601_" class="st1" d="M60 140h8v8h-8z"/></g><g id="XMLID_267_"><path id="p_600_" class="st1" d="M60 148h8v8h-8z"/></g><g id="XMLID_266_"><path id="p_599_" class="st1" d="M60 156h8v8h-8z"/></g><g id="XMLID_265_"><path id="p_598_" class="st1" d="M60 172h8v8h-8z"/></g><g id="XMLID_264_"><path id="p_597_" class="st1" d="M60 188h8v8h-8z"/></g><g id="XMLID_263_"><path id="p_596_" class="st1" d="M60 196h8v8h-8z"/></g><g id="XMLID_262_"><path id="p_595_" class="st1" d="M60 204h8v8h-8z"/></g><g id="XMLID_261_"><path id="p_594_" class="st1" d="M60 220h8v8h-8z"/></g><g id="XMLID_260_"><path id="p_593_" class="st1" d="M68 28h8v8h-8z"/></g><g id="XMLID_259_"><path id="p_592_" class="st1" d="M68 76h8v8h-8z"/></g><g id="XMLID_258_"><path id="p_591_" class="st1" d="M68 100h8v8h-8z"/></g><g id="XMLID_257_"><path id="p_590_" class="st1" d="M68 108h8v8h-8z"/></g><g id="XMLID_256_"><path id="p_589_" class="st1" d="M68 116h8v8h-8z"/></g><g id="XMLID_255_"><path id="p_588_" class="st1" d="M68 124h8v8h-8z"/></g><g id="XMLID_254_"><path id="p_587_" class="st1" d="M68 132h8v8h-8z"/></g><g id="XMLID_253_"><path id="p_586_" class="st1" d="M68 140h8v8h-8z"/></g><g id="XMLID_252_"><path id="p_585_" class="st1" d="M68 156h8v8h-8z"/></g><g id="XMLID_251_"><path id="p_584_" class="st1" d="M68 172h8v8h-8z"/></g><g id="XMLID_250_"><path id="p_583_" class="st1" d="M68 220h8v8h-8z"/></g><g id="XMLID_249_"><path id="p_582_" class="st1" d="M76 28h8v8h-8z"/></g><g id="XMLID_248_"><path id="p_581_" class="st1" d="M76 36h8v8h-8z"/></g><g id="XMLID_247_"><path id="p_580_" class="st1" d="M76 44h8v8h-8z"/></g><g id="XMLID_246_"><path id="p_579_" class="st1" d="M76 52h8v8h-8z"/></g><g id="XMLID_245_"><path id="p_578_" class="st1" d="M76 60h8v8h-8z"/></g><g id="XMLID_244_"><path id="p_577_" class="st1" d="M76 68h8v8h-8z"/></g><g id="XMLID_243_"><path id="p_576_" class="st1" d="M76 76h8v8h-8z"/></g><g id="XMLID_242_"><path id="p_575_" class="st1" d="M76 92h8v8h-8z"/></g><g id="XMLID_241_"><path id="p_574_" class="st1" d="M76 108h8v8h-8z"/></g><g id="XMLID_240_"><path id="p_573_" class="st1" d="M76 124h8v8h-8z"/></g><g id="XMLID_239_"><path id="p_572_" class="st1" d="M76 140h8v8h-8z"/></g><g id="XMLID_238_"><path id="p_571_" class="st1" d="M76 156h8v8h-8z"/></g><g id="XMLID_237_"><path id="p_570_" class="st1" d="M76 172h8v8h-8z"/></g><g id="XMLID_236_"><path id="p_569_" class="st1" d="M76 180h8v8h-8z"/></g><g id="XMLID_235_"><path id="p_568_" class="st1" d="M76 188h8v8h-8z"/></g><g id="XMLID_234_"><path id="p_567_" class="st1" d="M76 196h8v8h-8z"/></g><g id="XMLID_233_"><path id="p_566_" class="st1" d="M76 204h8v8h-8z"/></g><g id="XMLID_232_"><path id="p_565_" class="st1" d="M76 212h8v8h-8z"/></g><g id="XMLID_231_"><path id="p_564_" class="st1" d="M76 220h8v8h-8z"/></g><g id="XMLID_230_"><path id="p_563_" class="st1" d="M84 92h8v8h-8z"/></g><g id="XMLID_229_"><path id="p_562_" class="st1" d="M84 100h8v8h-8z"/></g><g id="XMLID_228_"><path id="p_561_" class="st1" d="M84 140h8v8h-8z"/></g><g id="XMLID_227_"><path id="p_560_" class="st1" d="M92 36h8v8h-8z"/></g><g id="XMLID_226_"><path id="p_559_" class="st1" d="M92 44h8v8h-8z"/></g><g id="XMLID_225_"><path id="p_558_" class="st1" d="M92 60h8v8h-8z"/></g><g id="XMLID_224_"><path id="p_557_" class="st1" d="M92 68h8v8h-8z"/></g><g id="XMLID_223_"><path id="p_556_" class="st1" d="M92 76h8v8h-8z"/></g><g id="XMLID_222_"><path id="p_555_" class="st1" d="M92 84h8v8h-8z"/></g><g id="XMLID_221_"><path id="p_554_" class="st1" d="M92 116h8v8h-8z"/></g><g id="XMLID_220_"><path id="p_553_" class="st1" d="M92 124h8v8h-8z"/></g><g id="XMLID_219_"><path id="p_552_" class="st1" d="M92 132h8v8h-8z"/></g><g id="XMLID_218_"><path id="p_551_" class="st1" d="M92 140h8v8h-8z"/></g><g id="XMLID_217_"><path id="p_550_" class="st1" d="M92 164h8v8h-8z"/></g><g id="XMLID_216_"><path id="p_549_" class="st1" d="M92 172h8v8h-8z"/></g><g id="XMLID_215_"><path id="p_548_" class="st1" d="M92 196h8v8h-8z"/></g><g id="XMLID_214_"><path id="p_547_" class="st1" d="M92 212h8v8h-8z"/></g><g id="XMLID_213_"><path id="p_546_" class="st1" d="M92 220h8v8h-8z"/></g><g id="XMLID_212_"><path id="p_545_" class="st1" d="M100 28h8v8h-8z"/></g><g id="XMLID_211_"><path id="p_544_" class="st1" d="M100 44h8v8h-8z"/></g><g id="XMLID_210_"><path id="p_543_" class="st1" d="M100 52h8v8h-8z"/></g><g id="XMLID_209_"><path id="p_542_" class="st1" d="M100 68h8v8h-8z"/></g><g id="XMLID_208_"><path id="p_541_" class="st1" d="M100 84h8v8h-8z"/></g><g id="XMLID_207_"><path id="p_540_" class="st1" d="M100 108h8v8h-8z"/></g><g id="XMLID_206_"><path id="p_539_" class="st1" d="M100 132h8v8h-8z"/></g><g id="XMLID_205_"><path id="p_538_" class="st1" d="M100 140h8v8h-8z"/></g><g id="XMLID_204_"><path id="p_537_" class="st1" d="M100 188h8v8h-8z"/></g><g id="XMLID_203_"><path id="p_536_" class="st1" d="M100 204h8v8h-8z"/></g><g id="XMLID_202_"><path id="p_535_" class="st1" d="M100 220h8v8h-8z"/></g><g id="XMLID_201_"><path id="p_534_" class="st1" d="M108 44h8v8h-8z"/></g><g id="XMLID_200_"><path id="p_533_" class="st1" d="M108 52h8v8h-8z"/></g><g id="XMLID_199_"><path id="p_532_" class="st1" d="M108 76h8v8h-8z"/></g><g id="XMLID_198_"><path id="p_531_" class="st1" d="M108 92h8v8h-8z"/></g><g id="XMLID_197_"><path id="p_530_" class="st1" d="M108 100h8v8h-8z"/></g><g id="XMLID_196_"><path id="p_529_" class="st1" d="M108 108h8v8h-8z"/></g><g id="XMLID_195_"><path id="p_528_" class="st1" d="M108 132h8v8h-8z"/></g><g id="XMLID_194_"><path id="p_527_" class="st1" d="M108 140h8v8h-8z"/></g><g id="XMLID_193_"><path id="p_526_" class="st1" d="M108 156h8v8h-8z"/></g><g id="XMLID_192_"><path id="p_525_" class="st1" d="M108 180h8v8h-8z"/></g><g id="XMLID_191_"><path id="p_524_" class="st1" d="M108 196h8v8h-8z"/></g><g id="XMLID_190_"><path id="p_523_" class="st1" d="M108 204h8v8h-8z"/></g><g id="XMLID_189_"><path id="p_522_" class="st1" d="M108 220h8v8h-8z"/></g><g id="XMLID_188_"><path id="p_521_" class="st1" d="M116 36h8v8h-8z"/></g><g id="XMLID_187_"><path id="p_520_" class="st1" d="M116 44h8v8h-8z"/></g><g id="XMLID_186_"><path id="p_519_" class="st1" d="M116 52h8v8h-8z"/></g><g id="XMLID_185_"><path id="p_518_" class="st1" d="M116 68h8v8h-8z"/></g><g id="XMLID_184_"><path id="p_517_" class="st1" d="M116 100h8v8h-8z"/></g><g id="XMLID_183_"><path id="p_516_" class="st1" d="M116 132h8v8h-8z"/></g><g id="XMLID_182_"><path id="p_515_" class="st1" d="M116 156h8v8h-8z"/></g><g id="XMLID_181_"><path id="p_514_" class="st1" d="M116 180h8v8h-8z"/></g><g id="XMLID_180_"><path id="p_513_" class="st1" d="M116 188h8v8h-8z"/></g><g id="XMLID_179_"><path id="p_512_" class="st1" d="M116 196h8v8h-8z"/></g><g id="XMLID_178_"><path id="p_511_" class="st1" d="M116 204h8v8h-8z"/></g><g id="XMLID_177_"><path id="p_510_" class="st1" d="M116 212h8v8h-8z"/></g><g id="XMLID_176_"><path id="p_509_" class="st1" d="M116 220h8v8h-8z"/></g><g id="XMLID_175_"><path id="p_508_" class="st1" d="M124 28h8v8h-8z"/></g><g id="XMLID_174_"><path id="p_507_" class="st1" d="M124 36h8v8h-8z"/></g><g id="XMLID_173_"><path id="p_506_" class="st1" d="M124 44h8v8h-8z"/></g><g id="XMLID_172_"><path id="p_505_" class="st1" d="M124 76h8v8h-8z"/></g><g id="XMLID_171_"><path id="p_504_" class="st1" d="M124 84h8v8h-8z"/></g><g id="XMLID_170_"><path id="p_503_" class="st1" d="M124 124h8v8h-8z"/></g><g id="XMLID_169_"><path id="p_502_" class="st1" d="M124 132h8v8h-8z"/></g><g id="XMLID_168_"><path id="p_501_" class="st1" d="M124 140h8v8h-8z"/></g><g id="XMLID_167_"><path id="p_500_" class="st1" d="M124 148h8v8h-8z"/></g><g id="XMLID_166_"><path id="p_499_" class="st1" d="M124 188h8v8h-8z"/></g><g id="XMLID_165_"><path id="p_498_" class="st1" d="M124 196h8v8h-8z"/></g><g id="XMLID_164_"><path id="p_497_" class="st1" d="M124 204h8v8h-8z"/></g><g id="XMLID_163_"><path id="p_496_" class="st1" d="M124 212h8v8h-8z"/></g><g id="XMLID_162_"><path id="p_495_" class="st1" d="M132 28h8v8h-8z"/></g><g id="XMLID_161_"><path id="p_494_" class="st1" d="M132 36h8v8h-8z"/></g><g id="XMLID_160_"><path id="p_493_" class="st1" d="M132 60h8v8h-8z"/></g><g id="XMLID_159_"><path id="p_492_" class="st1" d="M132 68h8v8h-8z"/></g><g id="XMLID_158_"><path id="p_491_" class="st1" d="M132 92h8v8h-8z"/></g><g id="XMLID_157_"><path id="p_490_" class="st1" d="M132 100h8v8h-8z"/></g><g id="XMLID_156_"><path id="p_489_" class="st1" d="M132 108h8v8h-8z"/></g><g id="XMLID_155_"><path id="p_488_" class="st1" d="M132 116h8v8h-8z"/></g><g id="XMLID_154_"><path id="p_487_" class="st1" d="M132 148h8v8h-8z"/></g><g id="XMLID_153_"><path id="p_486_" class="st1" d="M132 156h8v8h-8z"/></g><g id="XMLID_152_"><path id="p_485_" class="st1" d="M132 172h8v8h-8z"/></g><g id="XMLID_151_"><path id="p_484_" class="st1" d="M132 180h8v8h-8z"/></g><g id="XMLID_150_"><path id="p_483_" class="st1" d="M132 196h8v8h-8z"/></g><g id="XMLID_149_"><path id="p_482_" class="st1" d="M132 204h8v8h-8z"/></g><g id="XMLID_148_"><path id="p_481_" class="st1" d="M132 212h8v8h-8z"/></g><g id="XMLID_147_"><path id="p_480_" class="st1" d="M140 28h8v8h-8z"/></g><g id="XMLID_146_"><path id="p_479_" class="st1" d="M140 36h8v8h-8z"/></g><g id="XMLID_145_"><path id="p_478_" class="st1" d="M140 44h8v8h-8z"/></g><g id="XMLID_144_"><path id="p_477_" class="st1" d="M140 52h8v8h-8z"/></g><g id="XMLID_143_"><path id="p_476_" class="st1" d="M140 68h8v8h-8z"/></g><g id="XMLID_142_"><path id="p_475_" class="st1" d="M140 76h8v8h-8z"/></g><g id="XMLID_141_"><path id="p_474_" class="st1" d="M140 84h8v8h-8z"/></g><g id="XMLID_140_"><path id="p_473_" class="st1" d="M140 92h8v8h-8z"/></g><g id="XMLID_139_"><path id="p_472_" class="st1" d="M140 108h8v8h-8z"/></g><g id="XMLID_138_"><path id="p_471_" class="st1" d="M140 132h8v8h-8z"/></g><g id="XMLID_137_"><path id="p_470_" class="st1" d="M140 148h8v8h-8z"/></g><g id="XMLID_136_"><path id="p_469_" class="st1" d="M140 156h8v8h-8z"/></g><g id="XMLID_135_"><path id="p_468_" class="st1" d="M140 164h8v8h-8z"/></g><g id="XMLID_134_"><path id="p_467_" class="st1" d="M140 188h8v8h-8z"/></g><g id="XMLID_133_"><path id="p_466_" class="st1" d="M140 204h8v8h-8z"/></g><g id="XMLID_132_"><path id="p_465_" class="st1" d="M140 220h8v8h-8z"/></g><g id="XMLID_131_"><path id="p_464_" class="st1" d="M148 36h8v8h-8z"/></g><g id="XMLID_130_"><path id="p_463_" class="st1" d="M148 44h8v8h-8z"/></g><g id="XMLID_129_"><path id="p_462_" class="st1" d="M148 52h8v8h-8z"/></g><g id="XMLID_128_"><path id="p_461_" class="st1" d="M148 60h8v8h-8z"/></g><g id="XMLID_127_"><path id="p_460_" class="st1" d="M148 68h8v8h-8z"/></g><g id="XMLID_126_"><path id="p_459_" class="st1" d="M148 100h8v8h-8z"/></g><g id="XMLID_125_"><path id="p_458_" class="st1" d="M148 156h8v8h-8z"/></g><g id="XMLID_124_"><path id="p_457_" class="st1" d="M148 164h8v8h-8z"/></g><g id="XMLID_123_"><path id="p_456_" class="st1" d="M148 172h8v8h-8z"/></g><g id="XMLID_122_"><path id="p_455_" class="st1" d="M148 180h8v8h-8z"/></g><g id="XMLID_121_"><path id="p_454_" class="st1" d="M148 220h8v8h-8z"/></g><g id="XMLID_120_"><path id="p_453_" class="st1" d="M156 44h8v8h-8z"/></g><g id="XMLID_119_"><path id="p_452_" class="st1" d="M156 52h8v8h-8z"/></g><g id="XMLID_118_"><path id="p_451_" class="st1" d="M156 60h8v8h-8z"/></g><g id="XMLID_117_"><path id="p_450_" class="st1" d="M156 76h8v8h-8z"/></g><g id="XMLID_116_"><path id="p_449_" class="st1" d="M156 84h8v8h-8z"/></g><g id="XMLID_115_"><path id="p_448_" class="st1" d="M156 92h8v8h-8z"/></g><g id="XMLID_114_"><path id="p_447_" class="st1" d="M156 100h8v8h-8z"/></g><g id="XMLID_113_"><path id="p_446_" class="st1" d="M156 132h8v8h-8z"/></g><g id="XMLID_112_"><path id="p_445_" class="st1" d="M156 148h8v8h-8z"/></g><g id="XMLID_111_"><path id="p_444_" class="st1" d="M156 156h8v8h-8z"/></g><g id="XMLID_110_"><path id="p_443_" class="st1" d="M156 164h8v8h-8z"/></g><g id="XMLID_109_"><path id="p_442_" class="st1" d="M156 172h8v8h-8z"/></g><g id="XMLID_108_"><path id="p_441_" class="st1" d="M156 180h8v8h-8z"/></g><g id="XMLID_107_"><path id="p_440_" class="st1" d="M156 188h8v8h-8z"/></g><g id="XMLID_106_"><path id="p_439_" class="st1" d="M156 204h8v8h-8z"/></g><g id="XMLID_105_"><path id="p_438_" class="st1" d="M156 212h8v8h-8z"/></g><g id="XMLID_104_"><path id="p_437_" class="st1" d="M156 220h8v8h-8z"/></g><g id="XMLID_103_"><path id="p_436_" class="st1" d="M164 108h8v8h-8z"/></g><g id="XMLID_102_"><path id="p_435_" class="st1" d="M164 132h8v8h-8z"/></g><g id="XMLID_101_"><path id="p_434_" class="st1" d="M164 148h8v8h-8z"/></g><g id="XMLID_100_"><path id="p_433_" class="st1" d="M164 156h8v8h-8z"/></g><g id="XMLID_99_"><path id="p_432_" class="st1" d="M164 188h8v8h-8z"/></g><g id="XMLID_98_"><path id="p_431_" class="st1" d="M164 212h8v8h-8z"/></g><g id="XMLID_97_"><path id="p_430_" class="st1" d="M172 28h8v8h-8z"/></g><g id="XMLID_96_"><path id="p_429_" class="st1" d="M172 36h8v8h-8z"/></g><g id="XMLID_95_"><path id="p_428_" class="st1" d="M172 44h8v8h-8z"/></g><g id="XMLID_94_"><path id="p_427_" class="st1" d="M172 52h8v8h-8z"/></g><g id="XMLID_93_"><path id="p_426_" class="st1" d="M172 60h8v8h-8z"/></g><g id="XMLID_92_"><path id="p_425_" class="st1" d="M172 68h8v8h-8z"/></g><g id="XMLID_91_"><path id="p_424_" class="st1" d="M172 76h8v8h-8z"/></g><g id="XMLID_90_"><path id="p_423_" class="st1" d="M172 92h8v8h-8z"/></g><g id="XMLID_89_"><path id="p_422_" class="st1" d="M172 100h8v8h-8z"/></g><g id="XMLID_88_"><path id="p_421_" class="st1" d="M172 108h8v8h-8z"/></g><g id="XMLID_87_"><path id="p_420_" class="st1" d="M172 124h8v8h-8z"/></g><g id="XMLID_86_"><path id="p_419_" class="st1" d="M172 132h8v8h-8z"/></g><g id="XMLID_85_"><path id="p_418_" class="st1" d="M172 148h8v8h-8z"/></g><g id="XMLID_84_"><path id="p_417_" class="st1" d="M172 156h8v8h-8z"/></g><g id="XMLID_83_"><path id="p_416_" class="st1" d="M172 172h8v8h-8z"/></g><g id="XMLID_82_"><path id="p_415_" class="st1" d="M172 188h8v8h-8z"/></g><g id="XMLID_81_"><path id="p_414_" class="st1" d="M172 212h8v8h-8z"/></g><g id="XMLID_80_"><path id="p_413_" class="st1" d="M172 220h8v8h-8z"/></g><g id="XMLID_79_"><path id="p_412_" class="st1" d="M180 28h8v8h-8z"/></g><g id="XMLID_78_"><path id="p_411_" class="st1" d="M180 76h8v8h-8z"/></g><g id="XMLID_77_"><path id="p_410_" class="st1" d="M180 92h8v8h-8z"/></g><g id="XMLID_76_"><path id="p_409_" class="st1" d="M180 116h8v8h-8z"/></g><g id="XMLID_75_"><path id="p_408_" class="st1" d="M180 132h8v8h-8z"/></g><g id="XMLID_74_"><path id="p_407_" class="st1" d="M180 148h8v8h-8z"/></g><g id="XMLID_73_"><path id="p_406_" class="st1" d="M180 156h8v8h-8z"/></g><g id="XMLID_72_"><path id="p_405_" class="st1" d="M180 188h8v8h-8z"/></g><g id="XMLID_71_"><path id="p_404_" class="st1" d="M180 196h8v8h-8z"/></g><g id="XMLID_70_"><path id="p_403_" class="st1" d="M180 220h8v8h-8z"/></g><g id="XMLID_69_"><path id="p_402_" class="st1" d="M188 28h8v8h-8z"/></g><g id="XMLID_68_"><path id="p_401_" class="st1" d="M188 44h8v8h-8z"/></g><g id="XMLID_67_"><path id="p_400_" class="st1" d="M188 52h8v8h-8z"/></g><g id="XMLID_66_"><path id="p_399_" class="st1" d="M188 60h8v8h-8z"/></g><g id="XMLID_65_"><path id="p_398_" class="st1" d="M188 76h8v8h-8z"/></g><g id="XMLID_64_"><path id="p_397_" class="st1" d="M188 92h8v8h-8z"/></g><g id="XMLID_63_"><path id="p_396_" class="st1" d="M188 108h8v8h-8z"/></g><g id="XMLID_62_"><path id="p_395_" class="st1" d="M188 140h8v8h-8z"/></g><g id="XMLID_61_"><path id="p_394_" class="st1" d="M188 156h8v8h-8z"/></g><g id="XMLID_60_"><path id="p_393_" class="st1" d="M188 164h8v8h-8z"/></g><g id="XMLID_59_"><path id="p_392_" class="st1" d="M188 172h8v8h-8z"/></g><g id="XMLID_58_"><path id="p_391_" class="st1" d="M188 180h8v8h-8z"/></g><g id="XMLID_57_"><path id="p_390_" class="st1" d="M188 188h8v8h-8z"/></g><g id="XMLID_56_"><path id="p_389_" class="st1" d="M188 196h8v8h-8z"/></g><g id="XMLID_55_"><path id="p_388_" class="st1" d="M188 204h8v8h-8z"/></g><g id="XMLID_54_"><path id="p_387_" class="st1" d="M196 28h8v8h-8z"/></g><g id="XMLID_53_"><path id="p_386_" class="st1" d="M196 44h8v8h-8z"/></g><g id="XMLID_52_"><path id="p_385_" class="st1" d="M196 52h8v8h-8z"/></g><g id="XMLID_51_"><path id="p_384_" class="st1" d="M196 60h8v8h-8z"/></g><g id="XMLID_50_"><path id="p_383_" class="st1" d="M196 76h8v8h-8z"/></g><g id="XMLID_49_"><path id="p_382_" class="st1" d="M196 124h8v8h-8z"/></g><g id="XMLID_48_"><path id="p_381_" class="st1" d="M196 132h8v8h-8z"/></g><g id="XMLID_47_"><path id="p_380_" class="st1" d="M196 148h8v8h-8z"/></g><g id="XMLID_46_"><path id="p_379_" class="st1" d="M196 156h8v8h-8z"/></g><g id="XMLID_45_"><path id="p_378_" class="st1" d="M196 164h8v8h-8z"/></g><g id="XMLID_44_"><path id="p_377_" class="st1" d="M196 180h8v8h-8z"/></g><g id="XMLID_43_"><path id="p_376_" class="st1" d="M196 204h8v8h-8z"/></g><g id="XMLID_42_"><path id="p_375_" class="st1" d="M196 212h8v8h-8z"/></g><g id="XMLID_41_"><path id="p_374_" class="st1" d="M204 28h8v8h-8z"/></g><g id="XMLID_40_"><path id="p_373_" class="st1" d="M204 44h8v8h-8z"/></g><g id="XMLID_39_"><path id="p_372_" class="st1" d="M204 52h8v8h-8z"/></g><g id="XMLID_38_"><path id="p_371_" class="st1" d="M204 60h8v8h-8z"/></g><g id="XMLID_37_"><path id="p_370_" class="st1" d="M204 76h8v8h-8z"/></g><g id="XMLID_36_"><path id="p_369_" class="st1" d="M204 92h8v8h-8z"/></g><g id="XMLID_35_"><path id="p_368_" class="st1" d="M204 132h8v8h-8z"/></g><g id="XMLID_34_"><path id="p_367_" class="st1" d="M204 140h8v8h-8z"/></g><g id="XMLID_33_"><path id="p_366_" class="st1" d="M204 156h8v8h-8z"/></g><g id="XMLID_32_"><path id="p_365_" class="st1" d="M204 164h8v8h-8z"/></g><g id="XMLID_31_"><path id="p_364_" class="st1" d="M204 180h8v8h-8z"/></g><g id="XMLID_30_"><path id="p_363_" class="st1" d="M204 196h8v8h-8z"/></g><g id="XMLID_29_"><path id="p_362_" class="st1" d="M204 204h8v8h-8z"/></g><g id="XMLID_28_"><path id="p_361_" class="st1" d="M212 28h8v8h-8z"/></g><g id="XMLID_27_"><path id="p_360_" class="st1" d="M212 76h8v8h-8z"/></g><g id="XMLID_26_"><path id="p_359_" class="st1" d="M212 92h8v8h-8z"/></g><g id="XMLID_25_"><path id="p_358_" class="st1" d="M212 108h8v8h-8z"/></g><g id="XMLID_24_"><path id="p_357_" class="st1" d="M212 124h8v8h-8z"/></g><g id="XMLID_23_"><path id="p_356_" class="st1" d="M212 148h8v8h-8z"/></g><g id="XMLID_22_"><path id="p_355_" class="st1" d="M212 172h8v8h-8z"/></g><g id="XMLID_21_"><path id="p_354_" class="st1" d="M212 220h8v8h-8z"/></g><g id="XMLID_20_"><path id="p_353_" class="st1" d="M220 28h8v8h-8z"/></g><g id="XMLID_19_"><path id="p_352_" class="st1" d="M220 36h8v8h-8z"/></g><g id="XMLID_18_"><path id="p_351_" class="st1" d="M220 44h8v8h-8z"/></g><g id="XMLID_17_"><path id="p_350_" class="st1" d="M220 52h8v8h-8z"/></g><g id="XMLID_16_"><path id="p_349_" class="st1" d="M220 60h8v8h-8z"/></g><g id="XMLID_15_"><path id="p_348_" class="st1" d="M220 68h8v8h-8z"/></g><g id="XMLID_14_"><path id="p_347_" class="st1" d="M220 76h8v8h-8z"/></g><g id="XMLID_13_"><path id="p_346_" class="st1" d="M220 100h8v8h-8z"/></g><g id="XMLID_12_"><path id="p_345_" class="st1" d="M220 108h8v8h-8z"/></g><g id="XMLID_11_"><path id="p_344_" class="st1" d="M220 124h8v8h-8z"/></g><g id="XMLID_10_"><path id="p_343_" class="st1" d="M220 132h8v8h-8z"/></g><g id="XMLID_9_"><path id="p_342_" class="st1" d="M220 140h8v8h-8z"/></g><g id="XMLID_8_"><path id="p_341_" class="st1" d="M220 164h8v8h-8z"/></g><g id="XMLID_7_"><path id="p_340_" class="st1" d="M220 172h8v8h-8z"/></g><g id="XMLID_6_"><path id="p_339_" class="st1" d="M220 188h8v8h-8z"/></g><g id="XMLID_5_"><path id="p_338_" class="st1" d="M220 204h8v8h-8z"/></g><g id="XMLID_4_"><path id="p_337_" class="st1" d="M220 220h8v8h-8z"/></g></g></g></svg>